<?xml version="1.0" encoding="utf-8"?>
<!-- Generator: Adobe Illustrator 20.1.0, SVG Export Plug-In . SVG Version: 6.00 Build 0)  -->
<svg version="1.1" id="Calque_1" xmlns="http://www.w3.org/2000/svg" xmlns:xlink="http://www.w3.org/1999/xlink" x="0px" y="0px"
	 viewBox="0 0 595.29999 140" style="enable-background:new 0 0 595.29999 140;" xml:space="preserve">
<style type="text/css">
	.st0{fill:#8A253C;}
	.st1{fill:#902B42;}
	.st2{fill:#801D31;}
	.st3{fill:#F3B6C2;stroke:#F3B6C2;stroke-width:0.1;stroke-miterlimit:10;}
	.st4{fill:#C02F47;stroke:#C02F47;stroke-width:0.1;stroke-miterlimit:10;}
	.st5{fill:#FACBD4;stroke:#FACBD4;stroke-width:0.1;stroke-miterlimit:10;}
	.st6{fill:#FFF2D9;stroke:#FFF2D9;stroke-width:0.1;stroke-miterlimit:10;}
	.st7{fill:#FDD7DD;stroke:#FDD7DD;stroke-width:0.1;stroke-miterlimit:10;}
	.st8{fill:#FFFDEB;stroke:#FFFDEB;stroke-width:0.1;stroke-miterlimit:10;}
	.st9{fill:#FFFBEE;stroke:#FFFBEE;stroke-width:0.1;stroke-miterlimit:10;}
	.st10{fill:#CC7785;stroke:#CC7785;stroke-width:0.1;stroke-miterlimit:10;}
	.st11{fill:#D47A8A;stroke:#D47A8A;stroke-width:0.1;stroke-miterlimit:10;}
	.st12{fill:#FEE6EB;stroke:#FEE6EB;stroke-width:0.1;stroke-miterlimit:10;}
	.st13{fill:#C05161;stroke:#C05161;stroke-width:0.1;stroke-miterlimit:10;}
	.st14{fill:#FFF7F3;stroke:#FFF7F3;stroke-width:0.1;stroke-miterlimit:10;}
	.st15{fill:#FFF6EC;stroke:#FFF6EC;stroke-width:0.1;stroke-miterlimit:10;}
	.st16{fill:#7A283B;stroke:#7A283B;stroke-width:0.1;stroke-miterlimit:10;}
	.st17{fill:#FFF3F4;stroke:#FFF3F4;stroke-width:0.1;stroke-miterlimit:10;}
	.st18{fill:#FFEFF3;stroke:#FFEFF3;stroke-width:0.1;stroke-miterlimit:10;}
	.st19{fill:#8B001B;stroke:#8B001B;stroke-width:0.1;stroke-miterlimit:10;}
	.st20{fill:#FCEEF2;stroke:#FCEEF2;stroke-width:0.1;stroke-miterlimit:10;}
	.st21{fill:#FFE2D9;stroke:#FFE2D9;stroke-width:0.1;stroke-miterlimit:10;}
	.st22{fill:#FFB7B2;stroke:#FFB7B2;stroke-width:0.1;stroke-miterlimit:10;}
	.st23{fill:#FDEFF3;stroke:#FDEFF3;stroke-width:0.1;stroke-miterlimit:10;}
	.st24{fill:#811631;stroke:#811631;stroke-width:0.1;stroke-miterlimit:10;}
	.st25{fill:#AF546A;stroke:#AF546A;stroke-width:0.1;stroke-miterlimit:10;}
	.st26{fill:#883A4B;stroke:#883A4B;stroke-width:0.1;stroke-miterlimit:10;}
	.st27{fill:#FFBBA3;stroke:#FFBBA3;stroke-width:0.1;stroke-miterlimit:10;}
	.st28{fill:#FFAA92;stroke:#FFAA92;stroke-width:0.1;stroke-miterlimit:10;}
	.st29{fill:#FFE6E8;stroke:#FFE6E8;stroke-width:0.1;stroke-miterlimit:10;}
	.st30{fill:#E594A2;stroke:#E594A2;stroke-width:0.1;stroke-miterlimit:10;}
	.st31{fill:#FFF6F8;stroke:#FFF6F8;stroke-width:0.1;stroke-miterlimit:10;}
	.st32{fill:#F8D0D7;stroke:#F8D0D7;stroke-width:0.1;stroke-miterlimit:10;}
	.st33{fill:#FFF7FB;}
	.st34{fill:#FFB6A7;stroke:#FFB6A7;stroke-width:0.1;stroke-miterlimit:10;}
	.st35{fill:#FDF4F6;stroke:#FDF4F6;stroke-width:0.1;stroke-miterlimit:10;}
	.st36{fill:#FEFBFD;stroke:#FEFBFD;stroke-width:0.1;stroke-miterlimit:10;}
	.st37{fill:#963D54;stroke:#963D54;stroke-width:0.1;stroke-miterlimit:10;}
	.st38{fill:#FFFDFF;}
	.st39{fill:#741429;stroke:#741429;stroke-width:0.1;stroke-miterlimit:10;}
	.st40{fill:#FFF8FC;stroke:#FFF8FC;stroke-width:0.1;stroke-miterlimit:10;}
	.st41{fill:#FAEBED;stroke:#FAEBED;stroke-width:0.1;stroke-miterlimit:10;}
	.st42{fill:#700017;stroke:#700017;stroke-width:0.1;stroke-miterlimit:10;}
	.st43{fill:#75001A;stroke:#75001A;stroke-width:0.1;stroke-miterlimit:10;}
	.st44{fill:#FFFAFD;stroke:#FFFAFD;stroke-width:0.1;stroke-miterlimit:10;}
	.st45{fill:#65061B;stroke:#65061B;stroke-width:0.1;stroke-miterlimit:10;}
	.st46{fill:#FFF9FC;stroke:#FFF9FC;stroke-width:0.1;stroke-miterlimit:10;}
	.st47{fill:#770017;stroke:#770017;stroke-width:0.1;stroke-miterlimit:10;}
</style>
<g id="Calque_1_1_">
	<polygon class="st0" points="349.89999,68.09998 324.60001,62.39999 323.10001,87.59998 	"/>
	<polygon class="st1" points="631.40002,85.49998 554.20001,63.19999 605.09998,101.69998 	"/>
	<polygon class="st2" points="466.60001,114.99998 453.39999,86.59998 437.39999,138.79999 	"/>
</g>
<g id="Calque_2">
	<polygon class="st3" points="110.6,139.59999 125,139.59999 110.6,134.89998 	"/>
	<polygon class="st4" points="249.5,139.59999 312.10001,139.59999 285.79999,131.29999 	"/>
	<polygon class="st5" points="1,139.59999 63,139.59999 48,123.29999 	"/>
	<polygon class="st6" points="63,139.59999 110.6,139.59999 110.6,134.89998 	"/>
	<polygon class="st7" points="48,123.29999 63,139.59999 63.6,118.69998 	"/>
	<polygon class="st8" points="63,139.59999 110.6,134.89998 63.6,118.69998 	"/>
	<polygon class="st9" points="63.6,118.69998 110.6,134.89998 98,104.69998 	"/>
	<polygon class="st10" points="195.10001,114.79999 249.5,139.59999 235.7,108.59998 	"/>
	<polygon class="st11" points="187.5,139.59999 249.5,139.59999 195.10001,114.79999 	"/>
	<polygon class="st12" points="48,123.29999 63.6,118.69998 51.1,100.09998 	"/>
	<polygon class="st13" points="249.5,139.59999 285.79999,131.29999 235.7,108.59998 	"/>
	<polygon class="st14" points="63.6,118.69998 98,104.69998 82.4,93.09998 	"/>
	<polygon class="st15" points="1,139.59999 48,123.29999 1,93.59998 	"/>
	<polygon class="st16" points="285.79999,131.29999 312.10001,139.59999 320.20001,96.19998 	"/>
	<polygon class="st17" points="82.4,93.09998 98,104.69998 94.9,90.79999 	"/>
	<polygon class="st18" points="51.1,100.09998 63.6,118.69998 82.4,93.09998 	"/>
	<polygon class="st19" points="561.20001,139.59999 595.59998,139.59999 595.59998,98.59998 	"/>
	<polygon class="st20" points="48,123.29999 51.1,100.09998 1,93.59998 	"/>
	<polygon class="st21" points="110.6,134.89998 125,139.59999 98,104.69998 	"/>
	<polygon class="st22" points="125,139.59999 187.5,139.59999 195.10001,114.79999 	"/>
	<polygon class="st23" points="94.9,90.79999 98,104.69998 110.6,86.09998 	"/>
	<polygon class="st24" points="312.10001,139.59999 374.10001,139.59999 320.20001,96.19998 	"/>
	<polygon class="st25" points="235.7,108.59998 285.79999,131.29999 279.60001,87.89999 	"/>
	<polygon class="st26" points="285.79999,131.29999 320.20001,96.19998 279.60001,87.89999 	"/>
	<polygon class="st27" points="235.7,91.99998 235.7,108.59998 248.3,85.79999 	"/>
	<polygon class="st28" points="235.7,108.59998 279.60001,87.89999 248.3,85.79999 	"/>
	<polygon class="st29" points="98,104.69998 125,139.59999 110.6,86.09998 	"/>
	<polygon class="st30" points="195.10001,114.79999 235.7,108.59998 235.7,91.99998 	"/>
	<polygon class="st31" points="94.9,90.79999 110.6,86.09998 98,74.49998 	"/>
	<polygon class="st32" points="125,139.59999 195.10001,114.79999 110.6,86.09998 	"/>
	<polygon class="st33" points="98,74.49998 110.6,86.09998 101.2,72.19998 	"/>
	<polygon class="st34" points="235.7,91.99998 248.3,85.79999 242,77.49998 	"/>
	<polygon class="st35" points="82.4,93.09998 94.9,90.79999 98,74.49998 	"/>
	<polygon class="st36" points="1,93.59998 51.1,100.09998 44.6,54.79998 	"/>
	<polygon class="st37" points="279.60001,87.89999 320.20001,96.19998 301.5,71.29999 	"/>
	<polygon class="st38" points="4.2,72.19998 1,93.59998 44.6,54.79998 	"/>
	<polygon class="st39" points="320.20001,96.19998 374.10001,139.59999 364.10001,69.29999 	"/>
	<polygon class="st40" points="51.1,100.09998 82.4,93.09998 44.6,54.79998 	"/>
	<polygon class="st41" points="110.6,86.09998 195.10001,114.79999 146.5,53.19999 	"/>
	<polygon class="st42" points="498.60001,139.59999 561.20001,139.59999 551.79999,65.09998 	"/>
	<polygon class="st43" points="561.20001,139.59999 595.59998,98.59998 551.79999,65.09998 	"/>
	<polygon class="st44" points="101.2,72.19998 110.6,86.09998 146.5,53.19999 	"/>
	<polygon class="st45" points="374.10001,139.59999 436.70001,139.59999 364.10001,69.29999 	"/>
	<polygon class="st46" points="82.4,93.09998 98,74.49998 44.6,54.79998 	"/>
	<polygon class="st47" points="436.70001,139.59999 498.60001,139.59999 551.79999,65.09998 	"/>
	<polygon class="st36" points="0,93.59998 3.2,72.19998 0,47.49998 	"/>
</g>
</svg>
