<?xml version="1.0" encoding="utf-8"?>
<!-- Generator: Adobe Illustrator 20.1.0, SVG Export Plug-In . SVG Version: 6.00 Build 0)  -->
<svg version="1.0" id="Layer_1" xmlns="http://www.w3.org/2000/svg" xmlns:xlink="http://www.w3.org/1999/xlink" x="0px" y="0px"
	 viewBox="0 0 800 800" style="enable-background:new 0 0 800 800;" xml:space="preserve">
<style type="text/css">
	.st0{fill:#F3B6C2;}
	.st1{fill:#C02F47;}
	.st2{fill:#FACBD4;}
	.st3{fill:#FFF2D9;}
	.st4{fill:#FDD7DD;}
	.st5{fill:#FFFDEB;}
	.st6{fill:#FFFBEE;}
	.st7{fill:#CC7785;}
	.st8{fill:#D47A8A;}
	.st9{fill:#FEE6EB;}
	.st10{fill:#C05161;}
	.st11{fill:#FFF7F3;}
	.st12{fill:#FFF6EC;}
	.st13{fill:#7A283B;}
	.st14{fill:#FFF3F4;}
	.st15{fill:#FFEFF3;}
	.st16{fill:#8B001B;}
	.st17{fill:#FCEEF2;}
	.st18{fill:#FFE2D9;}
	.st19{fill:#FFB7B2;}
	.st20{fill:#FDEFF3;}
	.st21{fill:#811631;}
	.st22{fill:#AF546A;}
	.st23{fill:#883A4B;}
	.st24{fill:#FFBBA3;}
	.st25{fill:#FFAA92;}
	.st26{fill:#FFE6E8;}
	.st27{fill:#E594A2;}
	.st28{fill:#FFF6F8;}
	.st29{fill:#F8D0D7;}
	.st30{fill:#FFF7FB;}
	.st31{fill:#FFB6A7;}
	.st32{fill:#FDF4F6;}
	.st33{fill:#FEFBFD;}
	.st34{fill:#963D54;}
	.st35{fill:#741429;}
	.st36{fill:#FFF8FC;}
	.st37{fill:#FAEBED;}
	.st38{fill:#700017;}
	.st39{fill:#75001A;}
	.st40{fill:#FFFAFD;}
	.st41{fill:#65061B;}
	.st42{fill:#FFF9FC;}
	.st43{fill:#FF9D8F;}
	.st44{fill:#FF342E;}
	.st45{fill:#F0C5CD;}
	.st46{fill:#F9E1E6;}
	.st47{fill:#EFAAB4;}
	.st48{fill:#8A253C;}
	.st49{fill:#E5B3BD;}
	.st50{fill:#E2ACB5;}
	.st51{fill:#902B42;}
	.st52{fill:#FFFDFF;}
	.st53{fill:#D39AA6;}
	.st54{fill:#D495A1;}
	.st55{fill:#B55F71;}
	.st56{fill:#B46975;}
	.st57{fill:#C58692;}
	.st58{fill:#FFFCFE;}
	.st59{fill:#EA1B27;}
	.st60{fill:#A9495C;}
	.st61{fill:#9F4B5E;}
	.st62{fill:#E9BDC5;}
	.st63{fill:#801D31;}
	.st64{fill:#FBF2F4;}
	.st65{fill:#DBA4B0;}
	.st66{fill:#933547;}
	.st67{fill:#882437;}
	.st68{fill:#770017;}
	.st69{fill:#7E0F26;}
	.st70{fill:#EFC4CC;}
	.st71{fill:#FBF6F9;}
	.st72{fill:#810018;}
	.st73{fill:#CE7A89;}
	.st74{fill:#B95566;}
	.st75{fill:#A24052;}
	.st76{fill:#F9EBEF;}
	.st77{fill:#F8E5E8;}
	.st78{fill:#73031A;}
	.st79{fill:#D1909D;}
	.st80{fill:#8D0324;}
	.st81{fill:#710019;}
	.st82{fill:#831E2F;}
	.st83{fill:#AC0E20;}
	.st84{fill:#70051C;}
	.st85{fill:#F8DAE0;}
	.st86{fill:#D3929D;}
	.st87{fill:#F9E7EC;}
	.st88{fill:#7D1A30;}
	.st89{fill:#620013;}
	.st90{fill:#B05263;}
	.st91{fill:#AD5866;}
	.st92{fill:#86081D;}
	.st93{fill:#640014;}
	.st94{fill:#7D2336;}
	.st95{fill:#B75865;}
	.st96{fill:#F5B2BD;}
	.st97{fill:#FAE7EA;}
	.st98{fill:#CD909C;}
	.st99{fill:#F29FAC;}
	.st100{fill:#8D3145;}
	.st101{fill:#944454;}
	.st102{fill:#A35866;}
	.st103{fill:#87273A;}
	.st104{fill:#873646;}
	.st105{fill:#ECC0C8;}
	.st106{fill:#E298A6;}
	.st107{fill:#C88F9B;}
	.st108{fill:#FDB1AC;}
	.st109{fill:#680217;}
	.st110{fill:#CB6C7B;}
	.st111{fill:#BA455E;}
	.st112{fill:#CD7A87;}
	.st113{fill:#6B0C21;}
	.st114{fill:#72182B;}
	.st115{fill:#9A5362;}
	.st116{fill:#E0A1AD;}
	.st117{fill:#CB364D;}
	.st118{fill:#CD3C52;}
	.st119{fill:#CD6376;}
	.st120{fill:#D27A89;}
	.st121{fill:#E0BAC2;}
	.st122{fill:#892F42;}
	.st123{fill:#D37181;}
	.st124{fill:#D77885;}
	.st125{fill:#93475A;}
	.st126{fill:#C89EA5;}
	.st127{fill:#C15C6D;}
	.st128{fill:#BA7F8A;}
	.st129{fill:#B77C89;}
	.st130{fill:#C28D96;}
	.st131{fill:#EDD7DB;}
	.st132{fill:#7F2D40;}
	.st133{fill:#D8A2AB;}
	.st134{fill:#BE4C5D;}
	.st135{fill:#CD949E;}
	.st136{fill:#D67C8C;}
	.st137{fill:#E6C8CF;}
	.st138{fill:#CD5F73;}
	.st139{fill:#CA5E6F;}
	.st140{fill:#D06073;}
	.st141{fill:#AC7784;}
	.st142{fill:#CC919E;}
	.st143{fill:#E0B8C1;}
	.st144{fill:#EED6DB;}
	.st145{fill:#C25267;}
	.st146{fill:#CF5B6F;}
	.st147{fill:#BE4255;}
	.st148{fill:#C2949D;}
	.st149{fill:#C04457;}
	.st150{fill:#BD5364;}
	.st151{fill:#D24A5F;}
	.st152{fill:#C04358;}
	.st153{fill:#D94E66;}
	.st154{fill:#BC6B7B;}
	.st155{fill:#D15469;}
	.st156{fill:#CD5065;}
	.st157{fill:#C45467;}
	.st158{fill:#E9CBD2;}
	.st159{fill:#E3CFD5;}
	.st160{fill:#D8BCC2;}
	.st161{fill:#C65A6B;}
	.st162{fill:#DDBFC6;}
	.st163{fill:#C1939C;}
	.st164{fill:#E3C7CD;}
	.st165{fill:#ECDCE0;}
	.st166{fill:#C44E60;}
	.st167{fill:#C45C6C;}
	.st168{fill:#C6586A;}
	.st169{fill:#C66474;}
	.st170{fill:#C25D6E;}
	.st171{fill:#E2CACF;}
	.st172{fill:#CB5B6E;}
	.st173{fill:#CB7A87;}
	.st174{fill:#D28292;}
	.st175{fill:#F5CDD6;}
	.st176{fill:#CC7483;}
	.st177{fill:#CA7581;}
	.st178{fill:#EED8DE;}
	.st179{fill:#EBD9DC;}
	.st180{fill:#D0818E;}
	.st181{fill:#F1E3E7;}
	.st182{fill:#CB727F;}
	.st183{fill:#CA7583;}
	.st184{fill:#C34156;}
	.st185{fill:#C96171;}
	.st186{fill:#DCA7B0;}
	.st187{fill:#EDD1D6;}
	.st188{fill:#EDDDE1;}
	.st189{fill:#E8D5D8;}
	.st190{fill:#E2B2B9;}
	.st191{fill:#D1828E;}
	.st192{fill:#CA717E;}
	.st193{fill:#EEDEE2;}
	.st194{fill:#D4B2BA;}
	.st195{fill:#DDB8C0;}
	.st196{fill:#D7B5BD;}
	.st197{fill:#EFD5DA;}
	.st198{fill:#C69BA5;}
	.st199{fill:#D5AAB4;}
	.st200{fill:#CC8B96;}
	.st201{fill:#EFE0E4;}
	.st202{fill:#D48391;}
	.st203{fill:#D17C8B;}
	.st204{fill:#D6B6BC;}
	.st205{fill:#D98E9A;}
	.st206{fill:#E6B4BC;}
	.st207{fill:#EBC9D0;}
	.st208{fill:#D58C97;}
	.st209{fill:#F0D8DD;}
	.st210{fill:#EBC5CD;}
	.st211{fill:#EFDFE3;}
	.st212{fill:#F2E3E7;}
	.st213{fill:#E3B1BB;}
	.st214{fill:#EDCFD6;}
	.st215{fill:#F4E6EA;}
	.st216{fill:#DDA2AD;}
	.st217{fill:#E2B0BA;}
	.st218{fill:#F3E0E3;}
	.st219{fill:#F4D4DA;}
	.st220{fill:#E1C9CE;}
	.st221{fill:#C798A3;}
	.st222{fill:#EEDCE1;}
	.st223{fill:#F3DDE1;}
	.st224{fill:#F6EAED;}
	.st225{fill:#E5B9C1;}
	.st226{fill:#D8B1BB;}
	.st227{fill:#F0DCE2;}
	.st228{fill:#F7E9ED;}
	.st229{fill:#F6EFF0;}
	.st230{fill:#E2C4CA;}
	.st231{fill:#F0DAE0;}
	.st232{fill:#FAF1F3;}
	.st233{fill:#FBEFF2;}
	.st234{fill:#F5D9DF;}
	.st235{fill:#EDD5DA;}
	.st236{fill:#C7A2AB;}
	.st237{fill:#E9CDD3;}
	.st238{fill:#F8EAEE;}
	.st239{fill:#F2DCE0;}
	.st240{fill:#FCF7F8;}
	.st241{fill:#F5E3E6;}
	.st242{fill:#F4E2E7;}
	.st243{fill:#FDF8FB;}
	.st244{fill:#FAF2F6;}
	.st245{fill:#FEF6FA;}
	.st246{fill:#C89DA7;}
	.st247{fill:#FDFAFC;}
	.st248{fill:#FCF7FA;}
	.st249{fill:#F2E6E9;}
	.st250{fill:#E9D5DB;}
	.st251{fill:#F5E6EA;}
	.st252{fill:#F9F0F2;}
	.st253{fill:#F8EFF1;}
	.st254{fill:#F9F4F7;}
	.st255{fill:#C59FA7;}
	.st256{fill:#FFFEFF;}
	.st257{fill:#FAF3F4;}
	.st258{fill:#FCF4F8;}
	.st259{fill:#FBF4F5;}
	.st260{fill:#F0E1E5;}
	.st261{fill:#EFE3E6;}
	.st262{fill:#EAC2C9;}
	.st263{fill:#FEFCFE;}
	.st264{fill:#E1C9D0;}
	.st265{fill:#E0C8CD;}
	.st266{fill:#FFFFFF;}
	.st267{fill:#DFC1C7;}
	.st268{fill:#DFC5CA;}
	.st269{fill:#EBD8DB;}
</style>
<g>
	<polygon class="st0" points="652.6,0 633.3,0 652.6,8.4 	"/>
	<polygon class="st1" points="465.7,0 381.5,0 416.8,16.8 	"/>
	<polygon class="st2" points="800,0 716.6,0 736.8,29.5 	"/>
	<polygon class="st3" points="716.6,0 652.6,0 652.6,8.4 	"/>
	<polygon class="st4" points="736.8,29.5 716.6,0 715.8,37.9 	"/>
	<polygon class="st5" points="715.8,37.9 716.6,0 652.6,8.4 	"/>
	<polygon class="st6" points="652.6,8.4 669.5,63.2 715.8,37.9 	"/>
	<polygon class="st7" points="538.9,50.5 465.7,0 484.2,63.2 	"/>
	<polygon class="st8" points="549.1,0 465.7,0 538.9,50.5 	"/>
	<polygon class="st9" points="732.6,71.6 736.8,29.5 715.8,37.9 	"/>
	<polygon class="st10" points="484.2,63.2 465.7,0 416.8,16.8 	"/>
	<polygon class="st11" points="715.8,37.9 669.5,63.2 690.5,84.2 	"/>
	<polygon class="st12" points="736.8,29.5 800,83.4 800,0 	"/>
	<polygon class="st13" points="416.8,16.8 381.5,0 370.5,88.4 	"/>
	<polygon class="st14" points="690.5,84.2 669.5,63.2 673.7,88.4 	"/>
	<polygon class="st15" points="690.5,84.2 732.6,71.6 715.8,37.9 	"/>
	<polygon class="st16" points="0,0 0,83.4 46.3,0 	"/>
	<polygon class="st17" points="732.6,71.6 800,83.4 736.8,29.5 	"/>
	<polygon class="st18" points="652.6,8.4 633.3,0 669.5,63.2 	"/>
	<polygon class="st19" points="633.3,0 549.1,0 538.9,50.5 	"/>
	<polygon class="st20" points="669.5,63.2 652.6,96.8 673.7,88.4 	"/>
	<polygon class="st21" points="381.5,0 298.1,0 370.5,88.4 	"/>
	<polygon class="st22" points="484.2,63.2 416.8,16.8 425.3,105.3 	"/>
	<polygon class="st23" points="416.8,16.8 370.5,88.4 425.3,105.3 	"/>
	<polygon class="st24" points="484.2,96.8 484.2,63.2 467.4,109.5 	"/>
	<polygon class="st25" points="467.4,109.5 484.2,63.2 425.3,105.3 	"/>
	<polygon class="st26" points="669.5,63.2 633.3,0 652.6,96.8 	"/>
	<polygon class="st27" points="538.9,50.5 484.2,63.2 484.2,96.8 	"/>
	<polygon class="st28" points="673.7,88.4 652.6,96.8 669.5,117.9 	"/>
	<polygon class="st29" points="652.6,96.8 633.3,0 538.9,50.5 	"/>
	<polygon class="st30" points="669.5,117.9 652.6,96.8 665.3,122.1 	"/>
	<polygon class="st31" points="484.2,96.8 467.4,109.5 475.8,126.3 	"/>
	<polygon class="st32" points="669.5,117.9 690.5,84.2 673.7,88.4 	"/>
	<polygon class="st33" points="745.3,134.7 800,83.4 732.6,71.6 	"/>
	<polygon class="st34" points="425.3,105.3 370.5,88.4 395.8,138.9 	"/>
	<polygon class="st35" points="370.5,88.4 298.1,0 311.6,143.2 	"/>
	<polygon class="st36" points="745.3,134.7 732.6,71.6 690.5,84.2 	"/>
	<polygon class="st37" points="652.6,96.8 538.9,50.5 602.1,147.4 	"/>
	<polygon class="st38" points="130.5,0 46.3,0 58.9,151.6 	"/>
	<polygon class="st39" points="46.3,0 0,83.4 58.9,151.6 	"/>
	<polygon class="st40" points="665.3,122.1 652.6,96.8 602.1,147.4 	"/>
	<polygon class="st41" points="298.1,0 213.9,0 311.6,143.2 	"/>
	<polygon class="st42" points="669.5,117.9 665.3,122.1 745.3,134.7 690.5,84.2 	"/>
	<polygon class="st43" points="467.4,109.5 425.3,105.3 475.8,126.3 	"/>
	<polygon class="st44" points="0,83.4 0,166.7 58.9,151.6 	"/>
	<polygon class="st45" points="534.7,172.6 538.9,50.5 484.2,96.8 	"/>
	<polygon class="st46" points="602.1,147.4 538.9,50.5 534.7,172.6 	"/>
	<polygon class="st47" points="534.7,172.6 484.2,96.8 475.8,126.3 	"/>
	<polygon class="st48" points="370.5,88.4 311.6,143.2 395.8,138.9 	"/>
	<polygon class="st49" points="492.6,176.8 534.7,172.6 480,164.2 	"/>
	<polygon class="st50" points="480,164.2 534.7,172.6 475.8,126.3 	"/>
	<polygon class="st51" points="395.8,138.9 311.6,143.2 383.2,172.6 	"/>
	<polygon class="st52" points="800,166.7 795.8,122.1 800,83.4 745.3,134.7 	"/>
	<polygon class="st53" points="492.6,176.8 480,164.2 471.6,176.8 	"/>
	<polygon class="st54" points="480,164.2 475.8,126.3 471.6,176.8 	"/>
	<polygon class="st55" points="425.3,105.3 395.8,138.9 475.8,126.3 	"/>
	<polygon class="st56" points="475.8,126.3 395.8,138.9 442.1,189.5 	"/>
	<polygon class="st57" points="475.8,126.3 442.1,189.5 471.6,176.8 	"/>
	<polygon class="st58" points="745.3,185.3 800,166.7 745.3,134.7 	"/>
	<polygon class="st59" points="58.9,151.6 0,166.7 33.7,197.9 	"/>
	<polygon class="st60" points="442.1,189.5 383.2,172.6 395.8,193.7 	"/>
	<polygon class="st61" points="395.8,138.9 383.2,172.6 442.1,189.5 	"/>
	<polygon class="st62" points="509.5,206.3 534.7,172.6 492.6,176.8 	"/>
	<polygon class="st63" points="383.2,172.6 311.6,143.2 324.2,206.3 	"/>
	<polygon class="st40" points="715.8,223.2 745.3,185.3 745.3,134.7 665.3,122.1 	"/>
	<polygon class="st64" points="741.1,206.3 745.3,185.3 715.8,223.2 	"/>
	<polygon class="st65" points="471.6,176.8 509.5,206.3 492.6,176.8 	"/>
	<polygon class="st66" points="395.8,193.7 383.2,172.6 366.3,231.6 	"/>
	<polygon class="st67" points="383.2,172.6 324.2,206.3 366.3,231.6 	"/>
	<polygon class="st68" points="213.9,0 130.5,0 58.9,151.6 	"/>
	<polygon class="st69" points="324.2,206.3 311.6,143.2 269.5,235.8 	"/>
	<polygon class="st70" points="509.5,206.3 530.5,244.2 534.7,172.6 	"/>
	<polygon class="st71" points="741.1,206.3 800,166.7 745.3,185.3 	"/>
	<polygon class="st72" points="0,166.7 0,250.9 33.7,197.9 	"/>
	<polygon class="st73" points="429.5,252.6 509.5,206.3 442.1,189.5 	"/>
	<polygon class="st74" points="395.8,193.7 429.5,252.6 442.1,189.5 	"/>
	<polygon class="st75" points="366.3,231.6 429.5,252.6 395.8,193.7 	"/>
	<polygon class="st76" points="800,250.9 800,166.7 741.1,206.3 	"/>
	<polygon class="st77" points="530.5,244.2 602.1,147.4 534.7,172.6 	"/>
	<polygon class="st78" points="311.6,143.2 58.9,151.6 269.5,235.8 	"/>
	<polygon class="st52" points="602.1,147.4 715.8,223.2 665.3,122.1 	"/>
	<polygon class="st79" points="442.1,189.5 509.5,206.3 471.6,176.8 	"/>
	<polygon class="st80" points="311.6,143.2 213.9,0 58.9,151.6 	"/>
	<polygon class="st81" points="269.5,235.8 58.9,151.6 185.3,286.3 	"/>
	<polygon class="st82" points="366.3,231.6 324.2,206.3 307.4,294.7 	"/>
	<polygon class="st83" points="324.2,206.3 269.5,235.8 307.4,294.7 	"/>
	<polygon class="st84" points="269.5,235.8 185.3,286.3 214.7,294.7 	"/>
	<polygon class="st85" points="715.8,282.1 800,250.9 715.8,223.2 	"/>
	<polygon class="st86" points="429.5,252.6 530.5,244.2 509.5,206.3 	"/>
	<polygon class="st87" points="715.8,223.2 800,250.9 741.1,206.3 	"/>
	<polygon class="st88" points="185.3,286.3 185.3,303.2 214.7,294.7 	"/>
	<polygon class="st89" points="58.9,151.6 33.7,197.9 109.5,324.2 185.3,286.3 	"/>
	<polygon class="st90" points="383.2,320 429.5,252.6 366.3,231.6 	"/>
	<polygon class="st91" points="366.3,231.6 307.4,294.7 383.2,320 	"/>
	<polygon class="st92" points="307.4,294.7 269.5,235.8 214.7,294.7 	"/>
	<polygon class="st42" points="530.5,244.2 715.8,223.2 602.1,147.4 	"/>
	<polygon class="st33" points="800,166.7 800,83.4 795.8,122.1 	"/>
	<polygon class="st93" points="33.7,197.9 0,250.9 109.5,324.2 	"/>
	<polygon class="st94" points="185.3,286.3 109.5,324.2 185.3,303.2 	"/>
	<polygon class="st95" points="425.3,341.1 429.5,252.6 383.2,320 	"/>
	<polygon class="st96" points="800,334.3 800,250.9 715.8,282.1 	"/>
	<polygon class="st97" points="715.8,282.1 715.8,223.2 530.5,244.2 	"/>
	<polygon class="st98" points="383.2,320 307.4,294.7 336.8,349.5 	"/>
	<polygon class="st99" points="728.4,349.5 715.8,282.1 707.4,345.3 	"/>
	<polygon class="st100" points="214.7,294.7 185.3,303.2 181.1,336.8 	"/>
	<polygon class="st101" points="185.3,303.2 109.5,324.2 155.8,353.7 	"/>
	<polygon class="st102" points="185.3,303.2 155.8,353.7 181.1,336.8 	"/>
	<polygon class="st103" points="307.4,294.7 214.7,294.7 286.3,349.5 	"/>
	<polygon class="st104" points="117.9,357.9 109.5,324.2 105.3,345.3 	"/>
	<polygon class="st105" points="627.4,357.9 715.8,282.1 530.5,244.2 	"/>
	<polygon class="st106" points="627.4,357.9 530.5,244.2 551.6,332.6 	"/>
	<polygon class="st107" points="336.8,349.5 307.4,294.7 286.3,349.5 	"/>
	<polygon class="st108" points="728.4,349.5 800,334.3 715.8,282.1 	"/>
	<polygon class="st109" points="0,250.9 0,334.3 109.5,324.2 	"/>
	<polygon class="st110" points="475.8,362.1 530.5,244.2 429.5,252.6 	"/>
	<polygon class="st111" points="475.8,362.1 429.5,252.6 425.3,341.1 	"/>
	<polygon class="st112" points="551.6,332.6 530.5,244.2 475.8,362.1 	"/>
	<polygon class="st113" points="109.5,324.2 0,334.3 33.7,362.1 	"/>
	<polygon class="st114" points="109.5,324.2 33.7,362.1 105.3,345.3 	"/>
	<polygon class="st115" points="155.8,353.7 109.5,324.2 117.9,357.9 	"/>
	<polygon class="st116" points="707.4,345.3 715.8,282.1 627.4,357.9 	"/>
	<polygon class="st117" points="416.8,387.4 475.8,362.1 425.3,341.1 	"/>
	<polygon class="st118" points="425.3,341.1 383.2,320 416.8,387.4 	"/>
	<polygon class="st119" points="416.8,387.4 383.2,320 336.8,349.5 	"/>
	<polygon class="st120" points="728.4,387.4 728.4,349.5 707.4,345.3 	"/>
	<polygon class="st121" points="286.3,349.5 294.7,383.2 336.8,349.5 	"/>
	<polygon class="st122" points="214.7,294.7 181.1,336.8 286.3,349.5 	"/>
	<polygon class="st123" points="589.5,412.6 627.4,357.9 551.6,332.6 	"/>
	<polygon class="st124" points="728.4,387.4 800,334.3 728.4,349.5 	"/>
	<polygon class="st125" points="0,334.3 0,418.5 33.7,362.1 	"/>
	<polygon class="st126" points="117.9,357.9 130.5,421.1 155.8,353.7 	"/>
	<polygon class="st127" points="800,418.5 800,334.3 728.4,387.4 	"/>
	<polygon class="st128" points="155.8,353.7 202.1,429.5 181.1,336.8 	"/>
	<polygon class="st129" points="181.1,336.8 227.4,433.7 286.3,349.5 	"/>
	<polygon class="st130" points="181.1,336.8 202.1,429.5 227.4,433.7 	"/>
	<polygon class="st131" points="286.3,349.5 227.4,433.7 294.7,383.2 	"/>
	<polygon class="st132" points="105.3,345.3 33.7,362.1 117.9,357.9 	"/>
	<polygon class="st133" points="294.7,383.2 353.7,442.1 336.8,349.5 	"/>
	<polygon class="st134" points="353.7,442.1 416.8,387.4 336.8,349.5 	"/>
	<polygon class="st135" points="155.8,353.7 130.5,421.1 202.1,429.5 	"/>
	<polygon class="st136" points="627.4,357.9 728.4,387.4 707.4,345.3 	"/>
	<polygon class="st137" points="227.4,433.7 202.1,429.5 206.3,446.3 	"/>
	<polygon class="st138" points="551.6,332.6 475.8,362.1 589.5,412.6 	"/>
	<polygon class="st139" points="623.2,454.7 627.4,357.9 589.5,412.6 	"/>
	<polygon class="st140" points="694.7,450.5 728.4,387.4 627.4,357.9 	"/>
	<polygon class="st141" points="33.7,362.1 130.5,421.1 117.9,357.9 	"/>
	<polygon class="st142" points="202.1,429.5 130.5,421.1 172.6,463.2 	"/>
	<polygon class="st143" points="202.1,429.5 172.6,463.2 206.3,446.3 	"/>
	<polygon class="st144" points="206.3,446.3 218.9,463.2 227.4,433.7 	"/>
	<polygon class="st145" points="589.5,412.6 475.8,362.1 517.9,463.2 	"/>
	<polygon class="st146" points="694.7,450.5 627.4,357.9 623.2,454.7 	"/>
	<polygon class="st147" points="408.4,467.4 416.8,387.4 353.7,442.1 	"/>
	<polygon class="st148" points="172.6,463.2 130.5,421.1 126.3,467.4 	"/>
	<polygon class="st149" points="480,484.2 475.8,362.1 416.8,387.4 	"/>
	<polygon class="st150" points="517.9,463.2 475.8,362.1 480,484.2 	"/>
	<polygon class="st151" points="753.7,484.2 800,418.5 728.4,387.4 	"/>
	<polygon class="st152" points="791.6,471.6 800,418.5 753.7,484.2 	"/>
	<polygon class="st153" points="753.7,484.2 728.4,387.4 694.7,450.5 	"/>
	<polygon class="st154" points="33.7,362.1 0,418.5 130.5,421.1 	"/>
	<polygon class="st155" points="728.4,488.4 753.7,484.2 694.7,450.5 	"/>
	<polygon class="st139" points="648.4,488.4 694.7,450.5 623.2,454.7 	"/>
	<polygon class="st156" points="408.4,467.4 480,484.2 416.8,387.4 	"/>
	<polygon class="st157" points="353.7,484.2 408.4,467.4 353.7,442.1 	"/>
	<polygon class="st158" points="206.3,446.3 172.6,463.2 218.9,463.2 	"/>
	<polygon class="st159" points="130.5,421.1 0,418.5 63.2,496.8 	"/>
	<polygon class="st160" points="130.5,421.1 63.2,496.8 126.3,467.4 	"/>
	<polygon class="st161" points="732.6,496.8 753.7,484.2 728.4,488.4 	"/>
	<polygon class="st123" points="475.8,488.4 480,484.2 408.4,467.4 	"/>
	<polygon class="st162" points="0,418.5 0,501.9 63.2,496.8 	"/>
	<polygon class="st163" points="126.3,467.4 134.7,496.8 172.6,463.2 	"/>
	<polygon class="st164" points="294.7,383.2 227.4,433.7 353.7,442.1 	"/>
	<polygon class="st165" points="63.2,496.8 0,501.9 33.7,513.7 	"/>
	<polygon class="st166" points="753.7,484.2 800,501.9 791.6,471.6 	"/>
	<polygon class="st167" points="623.2,454.7 589.5,412.6 517.9,463.2 	"/>
	<polygon class="st168" points="766.3,522.1 800,501.9 753.7,484.2 	"/>
	<polygon class="st169" points="766.3,522.1 753.7,484.2 749.5,522.1 	"/>
	<polygon class="st170" points="749.5,522.1 753.7,484.2 732.6,496.8 	"/>
	<polygon class="st171" points="126.3,467.4 63.2,496.8 134.7,496.8 	"/>
	<polygon class="st172" points="728.4,488.4 694.7,450.5 648.4,488.4 	"/>
	<polygon class="st173" points="400,530.5 408.4,467.4 353.7,484.2 	"/>
	<polygon class="st174" points="353.7,442.1 227.4,433.7 353.7,484.2 	"/>
	<polygon class="st175" points="227.4,433.7 218.9,463.2 353.7,484.2 	"/>
	<polygon class="st176" points="517.9,463.2 602.1,543.2 623.2,454.7 	"/>
	<polygon class="st177" points="602.1,543.2 648.4,488.4 623.2,454.7 	"/>
	<polygon class="st178" points="218.9,463.2 172.6,463.2 181.1,543.2 	"/>
	<polygon class="st162" points="172.6,463.2 134.7,496.8 181.1,543.2 	"/>
	<polygon class="st179" points="63.2,496.8 33.7,513.7 46.3,543.2 	"/>
	<polygon class="st180" points="400,530.5 475.8,488.4 408.4,467.4 	"/>
	<polygon class="st181" points="218.9,463.2 181.1,543.2 210.5,551.6 	"/>
	<polygon class="st182" points="648.4,488.4 711.6,555.8 732.6,496.8 	"/>
	<polygon class="st183" points="711.6,555.8 749.5,522.1 732.6,496.8 	"/>
	<polygon class="st184" points="800,501.9 800,418.5 791.6,471.6 	"/>
	<polygon class="st185" points="732.6,496.8 728.4,488.4 648.4,488.4 	"/>
	<polygon class="st186" points="341.1,568.4 400,530.5 353.7,484.2 	"/>
	<polygon class="st187" points="341.1,568.4 362.1,576.8 400,530.5 	"/>
	<polygon class="st188" points="33.7,513.7 0,501.9 33.7,568.4 	"/>
	<polygon class="st189" points="33.7,513.7 33.7,568.4 46.3,543.2 	"/>
	<polygon class="st190" points="353.7,484.2 307.4,581.1 341.1,568.4 	"/>
	<polygon class="st191" points="218.9,463.2 307.4,581.1 353.7,484.2 	"/>
	<polygon class="st192" points="800,586.1 800,501.9 766.3,522.1 	"/>
	<polygon class="st193" points="0,501.9 0,586.1 33.7,568.4 	"/>
	<polygon class="st194" points="46.3,543.2 33.7,568.4 71.6,585.3 	"/>
	<polygon class="st195" points="210.5,551.6 307.4,581.1 218.9,463.2 	"/>
	<polygon class="st196" points="134.7,496.8 63.2,496.8 46.3,543.2 	"/>
	<polygon class="st197" points="362.1,576.8 400,589.5 400,530.5 	"/>
	<polygon class="st198" points="46.3,543.2 71.6,585.3 134.7,496.8 	"/>
	<polygon class="st199" points="261.1,593.7 307.4,581.1 210.5,551.6 	"/>
	<polygon class="st200" points="602.1,543.2 711.6,555.8 648.4,488.4 	"/>
	<polygon class="st201" points="181.1,543.2 181.1,602.1 210.5,551.6 	"/>
	<polygon class="st202" points="480,484.2 602.1,543.2 517.9,463.2 	"/>
	<polygon class="st203" points="749.5,522.1 800,586.1 766.3,522.1 	"/>
	<polygon class="st204" points="134.7,496.8 71.6,585.3 181.1,543.2 	"/>
	<polygon class="st205" points="475.8,488.4 602.1,543.2 480,484.2 	"/>
	<polygon class="st206" points="644.2,614.7 711.6,555.8 602.1,543.2 	"/>
	<polygon class="st207" points="644.2,614.7 602.1,543.2 593.7,593.7 	"/>
	<polygon class="st208" points="711.6,555.8 800,586.1 749.5,522.1 	"/>
	<polygon class="st209" points="677.9,623.2 644.2,614.7 656.8,623.2 	"/>
	<polygon class="st210" points="677.9,623.2 711.6,555.8 644.2,614.7 	"/>
	<polygon class="st211" points="71.6,585.3 155.8,623.2 181.1,543.2 	"/>
	<polygon class="st212" points="181.1,543.2 155.8,623.2 181.1,602.1 	"/>
	<polygon class="st70" points="698.9,631.6 711.6,555.8 677.9,623.2 	"/>
	<polygon class="st162" points="181.1,602.1 261.1,593.7 210.5,551.6 	"/>
	<polygon class="st213" points="400,589.5 475.8,488.4 400,530.5 	"/>
	<polygon class="st214" points="593.7,593.7 475.8,488.4 501.1,635.8 	"/>
	<polygon class="st215" points="362.1,576.8 370.5,635.8 400,589.5 	"/>
	<polygon class="st216" points="795.8,606.3 800,586.1 711.6,555.8 	"/>
	<polygon class="st217" points="593.7,593.7 602.1,543.2 475.8,488.4 	"/>
	<polygon class="st218" points="656.8,623.2 644.2,614.7 635.8,640 	"/>
	<polygon class="st219" points="501.1,635.8 475.8,488.4 400,589.5 	"/>
	<polygon class="st220" points="71.6,585.3 75.8,614.7 155.8,623.2 	"/>
	<polygon class="st221" points="33.7,568.4 75.8,614.7 71.6,585.3 	"/>
	<polygon class="st222" points="261.1,593.7 269.5,644.2 307.4,581.1 	"/>
	<polygon class="st223" points="635.8,640 644.2,614.7 593.7,593.7 	"/>
	<polygon class="st64" points="400,589.5 437.9,640 501.1,635.8 	"/>
	<polygon class="st224" points="307.4,581.1 370.5,635.8 362.1,576.8 	"/>
	<polygon class="st225" points="795.8,606.3 711.6,555.8 698.9,631.6 	"/>
	<polygon class="st226" points="33.7,568.4 0,586.1 75.8,614.7 	"/>
	<polygon class="st227" points="307.4,581.1 362.1,576.8 341.1,568.4 	"/>
	<polygon class="st33" points="437.9,640 467.4,661.1 488.4,656.8 501.1,635.8 	"/>
	<polygon class="st228" points="635.8,640 593.7,593.7 589.5,661.1 	"/>
	<polygon class="st229" points="370.5,635.8 437.9,640 400,589.5 	"/>
	<polygon class="st230" points="181.1,602.1 218.9,665.3 261.1,593.7 	"/>
	<polygon class="st181" points="218.9,665.3 269.5,644.2 261.1,593.7 	"/>
	<polygon class="st231" points="155.8,623.2 164.2,656.8 181.1,602.1 	"/>
	<polygon class="st232" points="501.1,635.8 547.4,669.5 593.7,593.7 	"/>
	<polygon class="st233" points="593.7,593.7 547.4,669.5 589.5,661.1 	"/>
	<polygon class="st234" points="791.6,665.3 800,669.5 795.8,606.3 	"/>
	<polygon class="st235" points="736.8,673.7 795.8,606.3 698.9,631.6 	"/>
	<polygon class="st212" points="736.8,673.7 698.9,631.6 724.2,669.5 	"/>
	<polygon class="st236" points="0,586.1 0,669.5 75.8,614.7 	"/>
	<polygon class="st237" points="164.2,656.8 218.9,665.3 181.1,602.1 	"/>
	<polygon class="st238" points="635.8,640 648.4,677.9 656.8,623.2 	"/>
	<polygon class="st232" points="635.8,669.5 648.4,677.9 635.8,640 	"/>
	<polygon class="st239" points="791.6,665.3 795.8,606.3 736.8,673.7 	"/>
	<polygon class="st64" points="635.8,669.5 635.8,640 589.5,661.1 	"/>
	<polygon class="st240" points="290.5,682.1 370.5,635.8 269.5,644.2 	"/>
	<polygon class="st241" points="648.4,677.9 677.9,623.2 656.8,623.2 	"/>
	<polygon class="st242" points="698.9,631.6 677.9,623.2 648.4,677.9 	"/>
	<polygon class="st243" points="488.4,656.8 547.4,669.5 501.1,635.8 	"/>
	<polygon class="st244" points="269.5,644.2 370.5,635.8 307.4,581.1 	"/>
	<polygon class="st245" points="627.4,694.7 648.4,677.9 635.8,669.5 	"/>
	<polygon class="st246" points="75.8,614.7 0,669.5 46.3,694.7 	"/>
	<polygon class="st71" points="218.9,665.3 185.3,778.9 256.8,698.9 269.5,644.2 	"/>
	<polygon class="st247" points="290.5,682.1 269.5,644.2 256.8,698.9 282.1,694.7 	"/>
	<polygon class="st248" points="589.5,661.1 627.4,694.7 635.8,669.5 	"/>
	<polygon class="st33" points="597.9,703.2 627.4,694.7 589.5,661.1 	"/>
	<polygon class="st249" points="164.2,656.8 155.8,623.2 75.8,614.7 101.1,703.2 	"/>
	<polygon class="st250" points="75.8,614.7 46.3,694.7 101.1,703.2 	"/>
	<polygon class="st251" points="724.2,669.5 698.9,631.6 648.4,677.9 	"/>
	<polygon class="st42" points="547.4,669.5 597.9,703.2 589.5,661.1 	"/>
	<polygon class="st252" points="770.5,720 800,669.5 791.6,665.3 	"/>
	<polygon class="st253" points="770.5,720 791.6,665.3 736.8,673.7 	"/>
	<polygon class="st181" points="101.1,703.2 46.3,694.7 92.6,715.8 	"/>
	<polygon class="st58" points="547.4,669.5 572.6,728.4 597.9,703.2 	"/>
	<polygon class="st243" points="370.5,635.8 290.5,682.1 378.9,724.2 437.9,640 	"/>
	<polygon class="st33" points="282.1,694.7 320,736.8 290.5,682.1 	"/>
	<polygon class="st58" points="320,736.8 374.7,728.4 378.9,724.2 290.5,682.1 	"/>
	<polygon class="st58" points="437.9,640 378.9,724.2 421.1,778.9 467.4,661.1 	"/>
	<polygon class="st254" points="741.1,749.5 770.5,720 736.8,673.7 	"/>
	<polygon class="st247" points="800,753.7 800,669.5 770.5,720 	"/>
	<polygon class="st255" points="0,669.5 0,753.7 46.3,694.7 	"/>
	<polygon class="st252" points="724.2,669.5 741.1,749.5 736.8,673.7 	"/>
	<polygon class="st33" points="627.4,694.7 648.4,757.9 648.4,677.9 	"/>
	<polygon class="st58" points="597.9,703.2 648.4,757.9 627.4,694.7 	"/>
	<polygon class="st58" points="488.4,656.8 534.7,757.9 547.4,669.5 	"/>
	<polygon class="st52" points="534.7,757.9 572.6,728.4 547.4,669.5 	"/>
	<polygon class="st256" points="572.6,728.4 623.2,770.5 597.9,703.2 	"/>
	<polygon class="st52" points="623.2,770.5 648.4,757.9 597.9,703.2 	"/>
	<polygon class="st257" points="648.4,677.9 690.5,774.7 724.2,669.5 	"/>
	<polygon class="st243" points="648.4,757.9 690.5,774.7 648.4,677.9 	"/>
	<polygon class="st258" points="682.1,774.7 690.5,774.7 648.4,757.9 	"/>
	<polygon class="st259" points="690.5,774.7 741.1,749.5 724.2,669.5 	"/>
	<polygon class="st52" points="467.4,661.1 421.1,778.9 534.7,757.9 488.4,656.8 	"/>
	<polygon class="st260" points="164.2,656.8 185.3,778.9 218.9,665.3 	"/>
	<polygon class="st261" points="46.3,694.7 67.4,778.9 92.6,715.8 	"/>
	<polygon class="st33" points="741.1,749.5 800,800 800,753.7 770.5,720 	"/>
	<polygon class="st40" points="256.8,698.9 320,736.8 282.1,694.7 	"/>
	<polygon class="st262" points="800,669.5 800,586.1 795.8,606.3 	"/>
	<polygon class="st263" points="421.1,778.9 378.9,724.2 374.7,728.4 320,736.8 381.5,800 416.8,783.2 	"/>
	<polygon class="st264" points="101.1,703.2 185.3,778.9 164.2,656.8 	"/>
	<polygon class="st265" points="67.4,778.9 113.7,791.6 92.6,715.8 	"/>
	<polygon class="st248" points="210.5,791.6 256.8,698.9 185.3,778.9 	"/>
	<polygon class="st266" points="210.5,791.6 185.3,778.9 130.5,800 213.9,800 298.1,800 256.8,698.9 	"/>
	<polygon class="st267" points="113.7,791.6 185.3,778.9 92.6,715.8 	"/>
	<polygon class="st268" points="92.6,715.8 185.3,778.9 101.1,703.2 	"/>
	<polygon class="st269" points="113.7,791.6 130.5,800 185.3,778.9 	"/>
	<polygon class="st232" points="690.5,774.7 716.6,800 741.1,749.5 	"/>
	<polygon class="st252" points="682.1,774.7 716.6,800 690.5,774.7 	"/>
	<polygon class="st248" points="648.4,757.9 633.3,800 682.1,774.7 	"/>
	<polygon class="st247" points="623.2,770.5 633.3,800 648.4,757.9 	"/>
	<polygon class="st266" points="633.3,800 716.6,800 682.1,774.7 	"/>
	<polygon class="st52" points="572.6,728.4 549.1,800 623.2,770.5 	"/>
	<polygon class="st58" points="534.7,757.9 549.1,800 572.6,728.4 	"/>
	<polygon class="st266" points="549.1,800 633.3,800 623.2,770.5 	"/>
	<polygon class="st266" points="716.6,800 800,800 741.1,749.5 	"/>
	<polygon class="st263" points="256.8,698.9 298.1,800 320,736.8 	"/>
	<polygon class="st52" points="298.1,800 381.5,800 320,736.8 	"/>
	<polygon class="st266" points="67.4,778.9 46.3,694.7 0,753.7 0,800 46.3,800 130.5,800 113.7,791.6 	"/>
	<polygon class="st266" points="421.1,778.9 416.8,783.2 381.5,800 465.7,800 549.1,800 534.7,757.9 	"/>
</g>
</svg>
