<?xml version="1.0" encoding="utf-8"?>
<!-- Generator: Adobe Illustrator 20.1.0, SVG Export Plug-In . SVG Version: 6.00 Build 0)  -->
<svg version="1.1" id="Calque_1" xmlns="http://www.w3.org/2000/svg" xmlns:xlink="http://www.w3.org/1999/xlink" x="0px" y="0px"
	 viewBox="0 0 594.5 138.3" style="enable-background:new 0 0 594.5 138.3;" xml:space="preserve">
<g>
	<path d="M81,114.4c-0.5,5.7-3.8,8.5-7.2,8.2c-2.3-0.2-21.1-19.3-49.9-19.6c-4.9,6.7-10,9.2-14.4,9.2c-7.4,0-9.5-4.2-9.5-6.8
		c0-1.6,0.8-4.4,5.1-6.6c1.2-0.8,2.8-1.4,5-1.8c1.3-0.4,2.7-0.7,4.3-0.9c0.9-2.9,1.8-6.3,2.5-10.4c2.9-16.1,3.6-63.5,4.8-70.5
		c1.3-7,16.2-10.3,14.7-1.3c-1,5.4-1.1,49.5-4.7,69.9c-0.8,4.4-2,8.2-3.5,11.6C52,94.9,82,103.2,81,114.4z M13.3,101.9
		c-9.1,0-10.3,7.7-6.7,7.7C10.2,109.6,13.3,101.9,13.3,101.9z"/>
	<path d="M78.2,61.8c0,15.1-5,32.4-18,32.4c-11.7,0-14.5-13.3-14.5-23.3c0-9.3,1.8-20.8,9-22.4c2.4-6.6,8.4-7.3,13.1-7.3
		C73.6,41.2,78.2,46.7,78.2,61.8z M67.1,47.2c-3.2,0-1.9,10.4-5.4,13.6c0.1,12-2.7,28.1,3.5,28.1C71.4,88.9,77.7,47.2,67.1,47.2z"/>
	<path d="M101.9,13.4c0.3,6.2-5.7,50.2-5.1,64.5c1.1,22,9.3,23.6,3.7,23.8c-5.5,0.3-15.3-9-16.1-27c-0.9-18.1,5.3-59.2,5-64.1
		C89,2.6,101.6,7.2,101.9,13.4z"/>
	<path d="M103.7,28.9c0-5,4.3-4.9,9.2-4.9c4.9,0,10.1,5.9,10.1,9.7C123,42.7,103.7,33.9,103.7,28.9z M136.3,64.8
		c-1.2,4.7-9.3,28-16.1,28c-0.1,0-0.1,0-0.2,0c-12.9,0-14.5-18.5-14.5-27.6c0-11.5,1.1-15.6,1.1-18.1c0-4.4,12.5-0.5,12.5,4.5
		c0,3.6-0.6,9.5-0.6,13.8c0,10.6,2.1,17.2,3.8,21c4.1-2.2,11.2-19.1,11.9-21.7C134.8,62.2,136.7,63.3,136.3,64.8z"/>
	<path d="M189,26.9c-8,2.5-25.5,5.2-41.7,6.5c-2.5,14-5.2,30.4-5.2,40.1c0,26.3,8.6,28.5,2.7,28.5s-14.9-11.6-14.9-33.2
		c0-10.1,1.9-23.1,3.9-34.7c-4.6,0.1-8.7-0.1-12.1-0.5c-9.8-1.2-16.8-5.9-21.8-9.3c-2.1-1.4-1-2.7,0.4-2.4c9.8,2,22.3,2.9,35,3.3
		l0.6-3c1.5-7.8,2.7-13.8,2.7-15.9c0-9.5,12.1-3.4,12.1,4.1c0,2-0.6,6-1.4,11.6l-0.6,3.4c17-0.1,32.8-0.8,40.5-0.8
		C192.1,24.7,191.5,26.1,189,26.9z"/>
	<path d="M211.6,58.4c-0.5,2.3-10.2,36.3-18.6,39.3c-0.3,0.2-0.9,0.3-1.6,0.3c-9.3,0-11.6-19.3-12.3-19.3c-0.8,0-4.6,15-12.4,15
		c-7.8,0-14.2-5.2-14.2-19c0-13,7.1-34.2,21.8-34.2c10.2,0,17.4,0,17.4,14.5c0,1.4-3.6,2.6-3.6,0.4c0-2.3-0.7-10.3-4.4-10.3
		c-9.7,0-18.3,17.6-18.3,35.8c0,3.7,0.4,9.6,3.4,9.6c3,0,9.2-20.7,9.2-25.8c0-2,0-5.5,5.9-5.5c6,0,8.5,2.8,8.5,4.9
		c0,0.6,0,1.1,0,1.6c0.3,6.7-0.3,25.7,3,25.7c2.1,0,13-31.3,13.7-33.5C209.8,55.8,212.1,55.9,211.6,58.4z"/>
	<path d="M312.6,105c0,28.5,13.4,32.2,4.2,32.2c-9.2,0-18.7-19.3-18.7-38.5c0-3.9,0.2-7.6,0.6-11.4c-5.1,3.6-11.5,7.2-16.8,8.3
		c-0.5,0.2-1.5,0.3-3,0.3c-0.6,0-1-0.1-1.2-0.3c-4.2-1.3-11-8.7-14.5-19.8c-7.1,6.2-13.5,10.9-19,10.9c-5.9,0-14.2-15.2-0.6-15.2
		c4.4,0,10.2-3.5,17.5-8.1c0-0.4,0-0.8,0-1.3c0-29.7,32.4-62.1,44.6-62.1c8.3,0,14.5,3.9,14.5,9.7c0,3.1-34.9,12.6-45.2,44.9
		c12-7,26.1-13.7,41.8-13.9c0.1,0,0.1-0.1,0.2-0.1s0.2,0,0.3,0.1c0.1-0.1,0.3-0.1,0.5-0.1v0.1c5.1,0.2,8.1,2.4,8.1,6.9
		C325.9,50.3,312.6,70.6,312.6,105z M312.1,45c-14.9,1.2-28.1,12.1-39.6,22.4c-0.2,2-0.3,4.1-0.3,6.1c0,8.8,4.8,14.6,7.7,18
		c5.3-1.2,14.2-8.7,20.7-16.3C303.5,62.1,308.2,50.9,312.1,45z"/>
	<path d="M369.6,45.3c0,8.2-2.1,16.1-7,16.1c-5,0-8.7-2-8.7-4.2s1.7-10.7,1.7-10.7S344,69.5,343.2,83.6c1.1,7.2,2.6,9.1,2.6,10.8
		c0,2.7-16.2,7.6-16.2-30.6c0-10.1,1.3-24.8,4.7-24.8c6.6,0,9.7,3.5,9.7,7.6c0,4.1-2,9-2,16.5c0,3.7,0.1,6.8,0.3,9.6
		c2.6-13,10.9-35.2,15.4-35.2C363.1,37.4,369.6,37.1,369.6,45.3z"/>
	<path d="M429.7,58.4c-0.5,2.3-10.2,36.3-18.6,39.3c-0.3,0.2-0.9,0.3-1.6,0.3c-9.3,0-11.6-19.3-12.3-19.3c-0.8,0-4.6,15-12.4,15
		c-7.8,0-14.2-5.2-14.2-19c0-13,7.1-34.2,21.8-34.2c10.2,0,17.4,0,17.4,14.5c0,1.4-3.6,2.6-3.6,0.4c0-2.3-0.7-10.3-4.4-10.3
		c-9.7,0-18.3,17.6-18.3,35.8c0,3.7,0.4,9.6,3.4,9.6s9.2-20.7,9.2-25.8c0-2,0-5.5,5.9-5.5c6,0,8.5,2.8,8.5,4.9c0,0.6,0,1.1,0,1.6
		c0.3,6.7-0.3,25.7,3,25.7c2.1,0,13-31.3,13.7-33.5C427.9,55.8,430.1,55.9,429.7,58.4z"/>
	<path d="M436.7,38.8c7.2,0,17.2-0.9,17.2,6.6c0,7.4-9.5,16.8-11.2,16.8c-1.8,0,2.4-14,0.8-14c-7.6,0-14.6,19.3-8.7,19.3
		c2.6,0,17.7-0.2,17.7,8.5c0,8.8-15.9,23-21.8,23s-9.6-5.1-7-5.1c4.8,0,18.4-14.7,18.4-18.2c0,0-21.3,3.3-21.3-12.8
		C420.8,54.4,429.6,38.8,436.7,38.8z"/>
	<path d="M474.2,38.8c7.2,0,17.2-0.9,17.2,6.6c0,7.4-9.5,16.8-11.2,16.8c-1.8,0,2.4-14,0.8-14c-7.6,0-14.6,19.3-8.7,19.3
		c2.6,0,17.7-0.2,17.7,8.5c0,8.8-15.9,23-21.8,23s-9.6-5.1-7-5.1c4.8,0,18.4-14.7,18.4-18.2c0,0-21.3,3.3-21.3-12.8
		C458.4,54.4,467.1,38.8,474.2,38.8z"/>
	<path d="M539.6,64.6c-0.7,2-6.4,26.2-22,26.2c-13.8,0-22-12.4-22-22.3c0-12.9,6.5-24.7,10.5-28.3c4.1-3.6,13.6-3,16.6-1.5
		c3,1.4,5.1,5.9,5.1,11.5c0,10.4-5,15.8-11.4,15.8c-2.4,0-5.1-0.7-7.2-1.3c-0.8,9.8,5.2,19.8,10.7,19.8c12.6,0,17-19.2,17.6-20.9
		C538.4,61.9,540.3,62.6,539.6,64.6z M509.5,62.8c12.6,5.3,14.6-16.5,9.5-16.5C513.9,46.2,510.5,54.2,509.5,62.8z"/>
	<path d="M592.4,26.9c-8,2.5-25.5,5.2-41.7,6.5c-2.5,14-5.2,30.4-5.2,40.1c0,26.3,8.6,28.5,2.7,28.5c-5.9,0-14.8-11.6-14.8-33.2
		c0-10.1,1.9-23.1,3.9-34.7c-4.6,0.1-8.7-0.1-12.1-0.5c-9.8-1.2-16.8-5.9-21.8-9.3c-2.1-1.4-1-2.7,0.4-2.4c9.8,2,22.3,2.9,35,3.3
		l0.6-3c1.5-7.8,2.7-13.8,2.7-15.9c0-9.5,12.1-3.4,12.1,4.1c0,2-0.6,6-1.4,11.6l-0.6,3.4c17-0.1,32.8-0.8,40.5-0.8
		C595.5,24.7,594.9,26.1,592.4,26.9z"/>
</g>
<g>
	<path d="M284.9,119.9c5.9,1.3,3.6,5.1,0.2,5.2c-8-3.1-93.3,19.3-107,11.4c-11.2-6.4-1.2-11.2,2.6-9.3
		C190.4,131,269.3,114.3,284.9,119.9z"/>
</g>
</svg>
